Coordinates
version=1
nRows=14
nColumns=40
inDegrees=yes

Units are S.I. units (second, meters, Newtons, ...)
If the header above contains a line with 'inDegrees', this indicates whether rotational values are in degrees (yes) or radians (no).

endheader
time	pelvis_tilt	pelvis_list	pelvis_rotation	pelvis_tx	pelvis_ty	pelvis_tz	hip_flexion_r	hip_adduction_r	hip_rotation_r	knee_angle_r	knee_angle_r_beta	ankle_angle_r	subtalar_angle_r	mtp_angle_r	hip_flexion_l	hip_adduction_l	hip_rotation_l	knee_angle_l	knee_angle_l_beta	ankle_angle_l	subtalar_angle_l	mtp_angle_l	lumbar_extension	lumbar_bending	lumbar_rotation	arm_flex_r	arm_add_r	arm_rot_r	elbow_flex_r	pro_sup_r	wrist_flex_r	wrist_dev_r	arm_flex_l	arm_add_l	arm_rot_l	elbow_flex_l	pro_sup_l	wrist_flex_l	wrist_dev_l
      0.00500000	     -5.30900688	     10.75760610	      2.18130292	     -0.59700072	      0.89893685	      0.18842533	     36.15788643	    -15.76851390	    -15.99694997	      8.63557390	      0.15071920	      2.26226700	      9.43328930	      0.00000000	    -11.93970978	     10.14683945	    -18.68625464	      8.49950389	      0.14834433	      8.99961788	     17.35635100	      0.00000000	      2.80179506	     -9.61586453	      7.02246483	     43.69091713	    -16.42209541	     43.69091713	     75.71821556	     44.71106143	      0.00000000	      0.00000000	     43.69091713	    -16.42209541	     43.69091713	     75.71821556	     44.71106143	      0.00000000	      0.00000000
      0.01000000	     -5.38211800	     10.78835339	      2.23237454	     -0.59250678	      0.89815049	      0.18879552	     36.25846760	    -15.75742488	    -15.97948628	      8.61888947	      0.15042800	      2.26550366	      9.43669151	      0.00000000	    -12.12923279	     10.10145820	    -18.68397471	      8.53891067	      0.14903211	      8.99035081	     17.35434780	      0.00000000	      2.79902486	     -9.61583656	      7.02276502	     43.69092827	    -16.42207552	     43.69092827	     75.71819601	     44.71108306	      0.00000000	      0.00000000	     43.69092827	    -16.42207552	     43.69092827	     75.71819601	     44.71108306	      0.00000000	      0.00000000
      0.01500000	     -5.34111356	     10.78474936	      2.30992348	     -0.58737838	      0.89754959	      0.18920148	     36.17018726	    -15.71312211	    -15.79218871	      8.59174606	      0.14995426	      2.43752072	      9.45253897	      0.00000000	    -12.42578475	      9.95845171	    -18.40198365	      8.77212457	      0.15310246	      8.77207306	     17.42145929	      0.00000000	      2.86975690	     -9.58706291	      7.03675687	     43.69129702	    -16.42141339	     43.69129702	     75.71754110	     44.71181420	      0.00000000	      0.00000000	     43.69129702	    -16.42141339	     43.69129702	     75.71754110	     44.71181420	      0.00000000	      0.00000000
      0.02000000	     -5.36594095	     10.79754555	      2.41344101	     -0.58172314	      0.89676945	      0.18952032	     36.17044108	    -15.71173277	    -15.68065896	      8.62777204	      0.15058303	      2.42125938	      9.43711857	      0.00000000	    -12.71465380	      9.85149457	    -18.31958238	      8.88939982	      0.15514930	      8.68845557	     17.43378109	      0.00000000	      2.89585228	     -9.54354975	      7.02283308	     43.69142082	    -16.42119121	     43.69142082	     75.71732151	     44.71205895	      0.00000000	      0.00000000	     43.69142082	    -16.42119121	     43.69142082	     75.71732151	     44.71205895	      0.00000000	      0.00000000
      0.02500000	     -5.32824949	     10.79869144	      2.49846054	     -0.57555805	      0.89609607	      0.18992314	     36.09258077	    -15.69065044	    -15.55451988	      8.71338723	      0.15207730	      2.40674346	      9.35854964	      0.00000000	    -13.06500243	      9.71412320	    -18.13222231	      9.09792141	      0.15878868	      8.51755856	     17.46795995	      0.00000000	      2.90968499	     -9.45210507	      6.98416692	     43.69159927	    -16.42087091	     43.69159927	     75.71700494	     44.71241164	      0.00000000	      0.00000000	     43.69159927	    -16.42087091	     43.69159927	     75.71700494	     44.71241164	      0.00000000	      0.00000000
      0.03000000	     -4.67663342	      9.80595003	      3.33901269	     -0.56859824	      0.89740688	      0.18834153	     34.38887071	    -15.10818360	    -16.34800332	      7.84731770	      0.13696153	      2.05492348	      8.46612444	      0.00000000	    -13.98098458	      8.30715675	    -17.49480450	      9.55238576	      0.16672058	      8.07406050	     17.41762916	      0.00000000	      1.88889443	     -7.98303152	      5.87285658	     43.69782777	    -16.40970490	     43.69782777	     75.70600482	     44.72451045	      0.00000000	      0.00000000	     43.69782777	    -16.40970490	     43.69782777	     75.70600482	     44.72451045	      0.00000000	      0.00000000
      0.03500000	     -4.64083691	      9.78868038	      3.41440968	     -0.56167302	      0.89665001	      0.18880902	     34.32175189	    -15.07057482	    -16.19734902	      8.06610551	      0.14078010	      1.95271164	      8.34384530	      0.00000000	    -14.35464477	      8.13549613	    -17.31204134	      9.77172132	      0.17054871	      7.89833203	     17.44674852	      0.00000000	      1.91612627	     -7.90073813	      5.80505813	     43.69812421	    -16.40917447	     43.69812421	     75.70548458	     44.72507381	      0.00000000	      0.00000000	     43.69812421	    -16.40917447	     43.69812421	     75.70548458	     44.72507381	      0.00000000	      0.00000000
      0.04000000	     -4.25358933	      9.14414388	      4.02438405	     -0.55422992	      0.89704093	      0.18783746	     33.33847812	    -14.71634547	    -16.71373873	      7.86588818	      0.13728565	      1.69915398	      7.67305653	      0.00000000	    -14.96736207	      7.12154991	    -16.94679488	     10.28551931	      0.17951618	      7.53709599	     17.35471829	      0.00000000	      1.38520844	     -7.09033727	      4.67613057	     43.70429653	    -16.39814762	     43.70429653	     75.69471288	     44.73656396	      0.00000000	      0.00000000	     43.70429653	    -16.39814762	     43.70429653	     75.69471288	     44.73656396	      0.00000000	      0.00000000
      0.04500000	     -4.16805935	      9.07953228	      4.11787395	     -0.54679262	      0.89642425	      0.18832525	     33.21552121	    -14.65485553	    -16.59204731	      8.24881822	      0.14396904	      1.49116142	      7.39284512	      0.00000000	    -15.36761150	      6.86273777	    -16.72560225	     10.58728491	      0.18478298	      7.21162628	     17.35410649	      0.00000000	      1.30562956	     -6.96490810	      4.56062983	     43.70479580	    -16.39725715	     43.70479580	     75.69384638	     44.73747563	      0.00000000	      0.00000000	     43.70479580	    -16.39725715	     43.70479580	     75.69384638	     44.73747563	      0.00000000	      0.00000000
      0.05000000	     -3.77140988	      8.42383258	      4.69897377	     -0.53887155	      0.89679564	      0.18739501	     32.23516262	    -14.26125294	    -17.06298576	      8.15912518	      0.14240360	      1.12212079	      6.71310013	      0.00000000	    -15.96738451	      5.83585944	    -16.35178581	     11.14334760	      0.19448811	      6.76297193	     17.07477256	      0.00000000	      0.88788387	     -6.09608579	      3.41120852	     43.71071720	    -16.38671283	     43.71071720	     75.68362689	     44.74806980	      0.00000000	      0.00000000	     43.71071720	    -16.38671283	     43.71071720	     75.68362689	     44.74806980	      0.00000000	      0.00000000
      0.05500000	     -3.50528804	      8.02506600	      5.03639134	     -0.53094996	      0.89676886	      0.18715991	     31.65702242	    -13.99752743	    -17.25095562	      8.39649339	      0.14654646	      0.72149631	      6.17854335	      0.00000000	    -16.45555390	      5.13542272	    -16.08394903	     11.63279817	      0.20303063	      6.29247152	     16.86860754	      0.00000000	      0.62664285	     -5.61716984	      2.62424551	     43.71647009	    -16.37649736	     43.71647009	     75.67379346	     44.75801437	      0.00000000	      0.00000000	     43.71647009	    -16.37649736	     43.71647009	     75.67379346	     44.75801437	      0.00000000	      0.00000000
      0.06000000	     -3.28490209	      7.77018554	      5.25313340	     -0.52298927	      0.89661435	      0.18728527	     31.26501903	    -13.82765591	    -17.29993518	      8.84922257	      0.15444807	      0.33838133	      5.69077333	      0.00000000	    -16.87105111	      4.60503862	    -15.90331916	     12.15190065	      0.21209068	      5.58585233	     16.56226307	      0.00000000	      0.42058009	     -5.21309954	      2.23372130	     43.71871463	    -16.37252015	     43.71871463	     75.66998460	     44.76179513	      0.00000000	      0.00000000	     43.71871463	    -16.37252015	     43.71871463	     75.66998460	     44.76179513	      0.00000000	      0.00000000
      0.06500000	     -2.95816305	      7.23733743	      5.60868445	     -0.51481328	      0.89682067	      0.18698460	     30.56007420	    -13.42561256	    -17.54878124	      9.09102855	      0.15866838	     -0.20439723	      5.12023975	      0.00000000	    -17.37860022	      3.76500562	    -15.52153128	     12.68677481	      0.22142599	      5.11014264	     16.11241943	      0.00000000	      0.13762373	     -4.49210642	      1.41070903	     43.72317193	    -16.36463613	     43.72317193	     75.66246700	     44.76914058	      0.00000000	      0.00000000	     43.72317193	    -16.36463613	     43.72317193	     75.66246700	     44.76914058	      0.00000000	      0.00000000
      0.07000000	     -2.79919312	      7.08596675	      5.60481914	     -0.50677578	      0.89656382	      0.18774184	     30.39434999	    -13.25567251	    -17.42277246	      9.77310973	      0.17057294	     -0.79143933	      4.75350936	      0.00000000	    -17.78603217	      3.42392019	    -15.26649664	     13.07414709	      0.22818691	      4.59052376	     16.02501811	      0.00000000	     -0.01357535	     -4.28101145	      1.24712474	     43.72359491	    -16.36388893	     43.72359491	     75.66175664	     44.76982751	      0.00000000	      0.00000000	     43.72359491	    -16.36388893	     43.72359491	     75.66175664	     44.76982751	      0.00000000	      0.00000000
